name ./resultDataOpenSim/trcMotMarkerGrf/sub10/grf-04-01.mot
datacolumns 19
datarows 15
range 0.98400000 1.04000000
endheader

                time	     ground_force_vx	     ground_force_vy	     ground_force_vz	     ground_force_px	     ground_force_py	     ground_force_pz	   l_ground_force_vx	   l_ground_force_vy	   l_ground_force_vz	   l_ground_force_px	   l_ground_force_py	   l_ground_force_pz	     ground_torque_x	     ground_torque_y	     ground_torque_z	   l_ground_torque_x	   l_ground_torque_y	   l_ground_torque_z	
          0.98400000	          0.00000000	          0.00000000	          0.00000000	          0.00000000	          0.00000000	          0.00000000	         -2.55038478	        303.86293580	         22.59853294	          0.08803008	         -0.07500000	         -0.05011074	          0.00000000	          0.00000000	          0.00000000	          0.00000000	         -0.16242235	          0.00000000	
          0.98800000	          0.00000000	          0.00000000	          0.00000000	          0.00000000	          0.00000000	          0.00000000	          0.11207330	        299.13438621	         22.69020540	          0.08789364	         -0.07500000	         -0.04980643	          0.00000000	          0.00000000	          0.00000000	          0.00000000	         -0.23134850	          0.00000000	
          0.99200000	          0.00000000	          0.00000000	          0.00000000	          0.00000000	          0.00000000	          0.00000000	          2.81616972	        295.82698375	         22.70780558	          0.08791399	         -0.07500000	         -0.04938842	          0.00000000	          0.00000000	          0.00000000	          0.00000000	         -0.31289737	          0.00000000	
          0.99600000	          0.00000000	          0.00000000	          0.00000000	          0.00000000	          0.00000000	          0.00000000	          5.49912785	        294.00407668	         22.62007362	          0.08811382	         -0.07500000	         -0.04884909	          0.00000000	          0.00000000	          0.00000000	          0.00000000	         -0.40762884	          0.00000000	
          1.00000000	          0.00000000	          0.00000000	          0.00000000	          0.00000000	          0.00000000	          0.00000000	          8.11074278	        293.66851895	         22.40081237	          0.08848371	         -0.07500000	         -0.04821096	          0.00000000	          0.00000000	          0.00000000	          0.00000000	         -0.51702438	          0.00000000	
          1.00400000	          0.00000000	          0.00000000	          0.00000000	          0.00000000	          0.00000000	          0.00000000	         10.61608566	        294.75241344	         22.03432788	          0.08900031	         -0.07500000	         -0.04748215	          0.00000000	          0.00000000	          0.00000000	          0.00000000	         -0.64321068	          0.00000000	
          1.00800000	          0.00000000	          0.00000000	          0.00000000	          0.00000000	          0.00000000	          0.00000000	         12.99621731	        297.18742276	         21.50911920	          0.08964520	         -0.07500000	         -0.04667087	          0.00000000	          0.00000000	          0.00000000	          0.00000000	         -0.78849747	          0.00000000	
          1.01200000	          0.00000000	          0.00000000	          0.00000000	          0.00000000	          0.00000000	          0.00000000	         15.25011830	        300.97422165	         20.82200262	          0.09042107	         -0.07500000	         -0.04578279	          0.00000000	          0.00000000	          0.00000000	          0.00000000	         -0.95499827	          0.00000000	
          1.01600000	          0.00000000	          0.00000000	          0.00000000	          0.00000000	          0.00000000	          0.00000000	         17.37285149	        306.17829866	         19.98675788	          0.09127146	         -0.07500000	         -0.04481577	          0.00000000	          0.00000000	          0.00000000	          0.00000000	         -1.14441032	          0.00000000	
          1.02000000	          0.00000000	          0.00000000	          0.00000000	          0.00000000	          0.00000000	          0.00000000	         19.32940765	        312.89271667	         19.02927439	          0.09207370	         -0.07500000	         -0.04380435	          0.00000000	          0.00000000	          0.00000000	          0.00000000	         -1.35782695	          0.00000000	
          1.02400000	          0.00000000	          0.00000000	          0.00000000	          0.00000000	          0.00000000	          0.00000000	         21.07285211	        321.23080983	         17.97384342	          0.09271133	         -0.07500000	         -0.04280469	          0.00000000	          0.00000000	          0.00000000	          0.00000000	         -1.59545634	          0.00000000	
          1.02800000	          0.00000000	          0.00000000	          0.00000000	          0.00000000	          0.00000000	          0.00000000	         22.59507894	        331.31477703	         16.83599267	          0.09317407	         -0.07500000	         -0.04182072	          0.00000000	          0.00000000	          0.00000000	          0.00000000	         -1.85629167	          0.00000000	
          1.03200000	          0.00000000	          0.00000000	          0.00000000	          0.00000000	          0.00000000	          0.00000000	         23.95099275	        343.21439624	         15.62981645	          0.09353181	         -0.07500000	         -0.04083665	          0.00000000	          0.00000000	          0.00000000	          0.00000000	         -2.13792175	          0.00000000	
          1.03600000	          0.00000000	          0.00000000	          0.00000000	          0.00000000	          0.00000000	          0.00000000	         25.23817605	        356.89650490	         14.37627024	          0.09389958	         -0.07500000	         -0.03985016	          0.00000000	          0.00000000	          0.00000000	          0.00000000	         -2.43665432	          0.00000000	
          1.04000000	          0.00000000	          0.00000000	          0.00000000	          0.00000000	          0.00000000	          0.00000000	         26.56135491	        372.23607769	         13.09982944	          0.09434520	         -0.07500000	         -0.03887468	          0.00000000	          0.00000000	          0.00000000	          0.00000000	         -2.74796247	          0.00000000	
